<?xml version="1.0" standalone="no"?><!DOCTYPE svg PUBLIC "-//W3C//DTD SVG 1.1//EN" "http://www.w3.org/Graphics/SVG/1.1/DTD/svg11.dtd"><svg t="1777469818278" class="icon" viewBox="0 0 1024 1024" version="1.1" xmlns="http://www.w3.org/2000/svg" p-id="2272" xmlns:xlink="http://www.w3.org/1999/xlink" width="200" height="200"><path d="M193.2 601.3l-50.6-83.1H106v119.2h36.3v-83.1l50.9 83.1h36.3V518.2h-36.3c-0.1 0 0 83.1 0 83.1z m288-43v-11.8H462v-16h-35.3v16.1h-19.2v11.8h19.2v79.1h35.4l-0.1-79.1c0-0.1 19.2-0.1 19.2-0.1z m-231.6 79h35.3v-79.2h-35.3v79.2z m-0.1-94.8h35.4v-24.4h-35.4v24.4z m618.7 10.2c-28.5 0-51.6 19.9-51.6 44.5s23.1 44.5 51.6 44.5 51.6-19.9 51.6-44.5-23.1-44.5-51.6-44.5z m14.2 61.1c0 12.6-7.3 17.8-14.4 17.8-7.1 0-14.4-5.2-14.4-17.8v-33.6c0-12.6 7.4-17.8 14.4-17.8s14.4 5.2 14.4 17.8v33.6zM770.3 562c-5.6-3.2-11.6-6.3-20-7.1-25.5-2.3-44.9 20.6-44.9 41.5-0.4 16.7 9 32.1 24.1 39.3 11.9 5.6 27.1 5.6 40.6-3v4.6H805V518.2h-34.8c0.1 0 0.1 43.8 0.1 43.8z m0.3 35.3v14.1c0 12.2-8.4 15.4-13.9 15.4-5.6 0-13.8-3.2-13.8-15.4v-28.2c0-12.3 8.2-15.4 13.8-15.4 5.5 0 13.8 3.1 13.8 15.4l0.1 14.1z m-403-42.9c-10.6 0.3-20.6 4.6-28.2 12v-8.3h-35.1l0.1 79.2h35v-52c0-6.9 7.2-14.6 16.8-14.6 9.6 0 16.1 7.7 16.1 14.6v52h35.1v-43.1c0.1-31.4-26.6-40.1-39.8-39.8z m286.9 0c-10.6 0.3-20.6 4.6-28.2 12v-8.3h-35v79.2h35v-52c0-6.9 7.2-14.6 16.8-14.6 9.6 0 16.1 7.7 16.1 14.6v52h35.1v-43.1c0.1-31.4-26.7-40.1-39.8-39.8z m-73.9 43.7c0-24.6-23.4-44.9-52.1-44.9-28.7 0-52 19.9-52 44.5s23.3 44.5 52 44.5c23.8 0 43.9-13.8 50.1-32.5h-35.2v4.8c0 14.5-9.4 17.7-14.6 17.7S514 629 514 614.5v-16.4h66.6z m-64.2-27.9c2.8-4.9 7.8-7.2 12.4-7.2 5.1 0 9.9 2.8 12.4 7.2 2.2 4 2.3 8.6 2.3 15.5H514c0-6.9 0.1-11.6 2.4-15.5z m417.5-37.3c0-3.9-2.8-5.9-8.5-5.9h-7.9v20.3h4.9V539h2.4l3.8 8.3h5.4l-4.5-9.1c2.7-0.6 4.4-2.6 4.4-5.3z m-9.2 3.2h-2.4v-5.9h2.1c2.9 0 4.4 0.9 4.4 3 0 2-1.3 2.9-4.1 2.9z m0.2-17c-10 0-18.1 8.2-18.1 18.3 0 10.1 8.1 18.3 18.1 18.3 10 0 18-8.2 18-18.3 0-10-8-18.3-18-18.3z m0 33.2c-8.1-0.1-14.7-6.7-14.6-14.8 0-8.2 6.5-14.8 14.6-14.8s14.6 6.6 14.6 14.8c0 8.2-6.6 14.8-14.6 14.8z m-39.4-100.9H137.8C58.7 451.3 5.6 509 5.6 578.2c0 69.2 53 126.3 132.4 126.3h747.4c79.4 0 132.4-57.1 132.4-126.3 0-69.2-53.2-126.9-132.3-126.8z m-0.4 222h-747c-63 0.3-101.3-42.7-101.3-95.4s38.5-95.3 101.4-95.5h747c62.8 0.1 101.4 42.7 101.4 95.5-0.1 52.7-38.4 95.7-101.5 95.4z" fill="#d81e06" p-id="2273"></path></svg>